<svg width="25" height="25" viewBox="0 0 25 25" fill="none" xmlns="http://www.w3.org/2000/svg">
<g id="vuesax/linear/eye-slash">
<g id="eye-slash">
<path id="Vector" d="M15.0299 9.96992L9.96992 15.0299C9.31992 14.3799 8.91992 13.4899 8.91992 12.4999C8.91992 10.5199 10.5199 8.91992 12.4999 8.91992C13.4899 8.91992 14.3799 9.31992 15.0299 9.96992Z" stroke="#013237" stroke-width="1.5" stroke-linecap="round" stroke-linejoin="round"/>
<path id="Vector_2" d="M18.3198 6.26998C16.5698 4.94998 14.5698 4.22998 12.4998 4.22998C8.96984 4.22998 5.67984 6.30998 3.38984 9.90998C2.48984 11.32 2.48984 13.69 3.38984 15.1C4.17984 16.34 5.09984 17.41 6.09984 18.27" stroke="#013237" stroke-width="1.5" stroke-linecap="round" stroke-linejoin="round"/>
<path id="Vector_3" d="M8.91992 20.0302C10.0599 20.5102 11.2699 20.7702 12.4999 20.7702C16.0299 20.7702 19.3199 18.6902 21.6099 15.0902C22.5099 13.6802 22.5099 11.3102 21.6099 9.90018C21.2799 9.38018 20.9199 8.89018 20.5499 8.43018" stroke="#013237" stroke-width="1.5" stroke-linecap="round" stroke-linejoin="round"/>
<path id="Vector_4" d="M16.0099 13.2002C15.7499 14.6102 14.5999 15.7602 13.1899 16.0202" stroke="#013237" stroke-width="1.5" stroke-linecap="round" stroke-linejoin="round"/>
<path id="Vector_5" d="M9.97 15.0298L2.5 22.4998" stroke="#013237" stroke-width="1.5" stroke-linecap="round" stroke-linejoin="round"/>
<path id="Vector_6" d="M22.4998 2.5L15.0298 9.97" stroke="#013237" stroke-width="1.5" stroke-linecap="round" stroke-linejoin="round"/>
</g>
</g>
</svg>
