<svg width="25" height="25" viewBox="0 0 25 25" fill="none" xmlns="http://www.w3.org/2000/svg">
<g id="Group 35537">
<path id="Vector" d="M24.3087 12.7681C24.3087 11.7774 24.2283 11.0544 24.0543 10.3047H12.7412V14.7763H19.3817C19.2479 15.8876 18.5249 17.5611 16.9183 18.6857L16.8958 18.8354L20.4728 21.6064L20.7206 21.6312C22.9966 19.5292 24.3087 16.4365 24.3087 12.7681Z" fill="#4285F4"/>
<path id="Vector_2" d="M12.7408 24.5496C15.9941 24.5496 18.7252 23.4785 20.7201 21.631L16.9179 18.6855C15.9004 19.3951 14.5347 19.8904 12.7408 19.8904C9.55437 19.8904 6.84996 17.7885 5.88591 14.8833L5.74461 14.8953L2.0252 17.7738L1.97656 17.909C3.958 21.8451 8.02805 24.5496 12.7408 24.5496Z" fill="#34A853"/>
<path id="Vector_3" d="M5.886 14.8834C5.63163 14.1336 5.48441 13.3303 5.48441 12.5002C5.48441 11.6701 5.63163 10.8668 5.87262 10.1171L5.86588 9.95744L2.09987 7.03271L1.97665 7.09132C1.16 8.72471 0.691406 10.5589 0.691406 12.5002C0.691406 14.4415 1.16 16.2757 1.97665 17.909L5.886 14.8834Z" fill="#FBBC05"/>
<path id="Vector_4" d="M12.7408 5.10977C15.0033 5.10977 16.5296 6.08711 17.3998 6.90385L20.8004 3.58354C18.7119 1.64224 15.9941 0.450684 12.7408 0.450684C8.02805 0.450684 3.958 3.15509 1.97656 7.09121L5.87253 10.117C6.84996 7.21175 9.55437 5.10977 12.7408 5.10977Z" fill="#EB4335"/>
</g>
</svg>
