<svg width="182" height="158" viewBox="0 0 182 158" fill="none" xmlns="http://www.w3.org/2000/svg">
<g id="Layer_1" clip-path="url(#clip0_1213_1103)">
<path id="Vector" d="M181.164 52.8207V104.92L158.605 117.942L136.045 130.968V157.016L113.486 143.994V91.8942L136.045 104.92L158.605 91.8942V65.8465L136.045 52.8207V78.8684L113.486 65.8465V39.7949L136.045 26.7729L158.605 39.7949L181.164 52.8207Z" fill="#038B00"/>
<path id="Vector_2" d="M90.9281 26.7733V52.821L68.3689 39.7952L45.8098 26.7733L23.2506 39.7952V65.8468L45.8098 78.8688V52.821L68.3689 65.8468V91.8945L45.8098 104.92L23.2506 91.8945L0.691406 78.8688V26.7733L23.2506 13.7475L45.8098 0.72168L68.3689 13.7475L90.9281 26.7733Z" fill="#038B00"/>
<path id="Vector_3" d="M158.605 91.8942L136.046 104.92L113.487 91.8942L90.9275 78.8685L68.3684 91.8942V65.8465L45.8092 52.8207L23.25 39.7949L45.8092 26.7729L68.3684 39.7949L90.9275 52.8207L113.487 39.7949V65.8465L136.046 78.8685L158.605 91.8942Z" fill="black"/>
</g>
<defs>
<clipPath id="clip0_1213_1103">
<rect width="180.856" height="156.844" fill="white" transform="translate(0.5 0.5)"/>
</clipPath>
</defs>
</svg>
