<svg width="24" height="25" viewBox="0 0 24 25" fill="none" xmlns="http://www.w3.org/2000/svg">
<g id="vuesax/linear/like">
<g id="like">
<path id="Vector" d="M7.47998 18.3798L10.58 20.7798C10.98 21.1798 11.88 21.3798 12.48 21.3798H16.28C17.48 21.3798 18.78 20.4798 19.08 19.2798L21.48 11.9798C21.98 10.5798 21.08 9.37975 19.58 9.37975H15.58C14.98 9.37975 14.48 8.87975 14.58 8.17975L15.08 4.97975C15.28 4.07975 14.68 3.07975 13.78 2.77975C12.98 2.47975 11.98 2.87975 11.58 3.47975L7.47998 9.57975" stroke="#013237" stroke-width="1.5" stroke-miterlimit="10"/>
<path id="Vector_2" d="M2.37988 18.3797V8.57969C2.37988 7.17969 2.97988 6.67969 4.37988 6.67969H5.37988C6.77988 6.67969 7.37988 7.17969 7.37988 8.57969V18.3797C7.37988 19.7797 6.77988 20.2797 5.37988 20.2797H4.37988C2.97988 20.2797 2.37988 19.7797 2.37988 18.3797Z" stroke="#013237" stroke-width="1.5" stroke-linecap="round" stroke-linejoin="round"/>
</g>
</g>
</svg>
